PathFileType	4	(X/Y/Z)	G:\Shared drives\HPL_Drive\Pi-Spi Study\20230118_AMCsubject1\Trimmed_left_horiz_add01_rotated.trc
DataRate	CameraRate	NumFrames	NumMarkers	Units	OrigDataRate	OrigDataStartFrame	OrigNumFrames
200.00	200.00	       10	35	mm	200.00	176	       200
Frame#	Time	C7			Sternum			r_AMC1			r_AMC2			r_AMC3			l_AMC1			l_AMC2			l_AMC3			PX			T8			r_humerous			r_elbow_medial			r_elbow_lateral			r_forearm			r_wrist_radius			r_wrist_ulna			r_MCP_1			r_MCP_3			l_humerous			l_elbow_medial			l_elbow_lateral			l_forearm			l_wrist_radius			l_wrist_ulna			l_MCP_1			l_MCP_3			r_ASIS			r_PSIS			l_ASIS			l_PSIS			r_IC			l_IC			TS			AI			AA			
		X1	Y1	Z1	X2	Y2	Z2	X3	Y3	Z3	X4	Y4	Z4	X5	Y5	Z5	X6	Y6	Z6	X7	Y7	Z7	X8	Y8	Z8	X9	Y9	Z9	X10	Y10	Z10	X11	Y11	Z11	X12	Y12	Z12	X13	Y13	Z13	X14	Y14	Z14	X15	Y15	Z15	X16	Y16	Z16	X17	Y17	Z17	X18	Y18	Z18	X19	Y19	Z19	X20	Y20	Z20	X21	Y21	Z21	X22	Y22	Z22	X23	Y23	Z23	X24	Y24	Z24	X25	Y25	Z25	X26	Y26	Z26	X27	Y27	Z27	X28	Y28	Z28	X29	Y29	Z29	X30	Y30	Z30	X31	Y31	Z31	X32	Y32	Z32	X33	Y33	Z33	X34	Y34	Z34	X35	Y35	Z35	

176	0.875	181.0431	1368.0991	-254.1887	317.1527	1322.3284	-227.4763	181.8007	1324.7683	-84.6402	215.4062	1332.7599	-48.3413	233.2906	1367.0597	-72.3365	238.0535	1342.2019	-408.0844	283.459	1364.594	-418.0575	272.5516	1389.2213	-371.1706	396.814	1134.2775	-214.2197	162.543	1189.4045	-251.4238	300.0984	1150.5048	-26.9748	231.2077	1007.2426	-49.4409	252.2683	1017.9291	13.1602	309.2391	863.4758	30.945	357.6985	800.7563	7.5057	312.3959	794.6852	31.1745	381.2229	718.5824	17.8461	334.4239	714.5466	37.6108	422.7566	1330.1495	-297.5027	532.7919	1238.8374	-264.0906	559.4576	1281.7191	-278.1326	677.0164	1309.1873	-168.4965	714.6432	1326.0952	-102.8286	724.8857	1284.4907	-108.7826	774.0063	1336.9851	-53.4506	781.2752	1294.0894	-54.2546	389.1442	906.9577	-88.5596	194.1941	929.0975	-154.6048	368.7404	894.6628	-344.229	186.4012	923.0314	-258.0525	310.26	971.9254	-54.7279	278.6781	940.5493	-376.7205	148.9963	1296.8964	-387.5283	172.6028	1200.3118	-403.2192	247.3352	1339.955	-475.495
177	0.88	181.0626	1368.0963	-254.223	317.165	1322.3133	-227.4871	181.838	1324.7786	-84.6178	215.4821	1332.7236	-48.3681	233.3171	1367.0825	-72.394	238.1072	1342.2006	-408.1182	283.5085	1364.5642	-418.0664	272.5897	1389.2042	-371.1811	396.863	1134.2997	-214.2159	162.5795	1189.3988	-251.4152	300.2401	1150.4615	-27.0226	231.2528	1007.2668	-49.4331	252.2823	1017.9503	13.1596	309.3076	863.5114	30.955	357.7103	800.8199	7.5388	312.4283	794.7419	31.2186	381.312	718.5322	17.8422	334.4221	714.5345	37.6433	422.8188	1330.1162	-297.4726	532.8265	1238.8182	-264.101	559.4943	1281.6837	-278.0989	677.0021	1309.1945	-168.4375	714.681	1326.0887	-102.7823	724.9141	1284.4738	-108.7403	774.0041	1336.9702	-53.3952	781.2833	1294.0706	-54.2382	389.1411	906.9314	-88.5208	194.2144	929.1155	-154.5774	368.7473	894.6796	-344.1909	186.4066	923.0375	-258.0186	310.3155	971.9095	-54.6711	278.7268	940.582	-376.7567	149.0307	1296.9138	-387.5457	172.6322	1200.2925	-403.2118	247.3938	1339.9625	-475.5279
178	0.885	181.0464	1368.0939	-254.229	317.1675	1322.3514	-227.4877	181.871	1324.7958	-84.6503	215.4701	1332.7871	-48.3628	233.3272	1367.1443	-72.4157	238.1267	1342.1865	-408.1601	283.5379	1364.6008	-418.1358	272.3793	1388.8884	-371.2028	396.8962	1134.3068	-214.2065	162.5868	1189.3915	-251.435	300.2751	1150.5233	-26.9871	231.2982	1007.3061	-49.4222	252.3678	1018.0276	13.1887	309.3394	863.5461	30.9891	357.7445	800.8904	7.5909	312.5405	794.7014	31.2233	381.3541	718.6116	17.8962	334.5247	714.5698	37.6942	422.8729	1330.1137	-297.4858	532.8433	1238.824	-264.0711	559.5045	1281.698	-278.1178	676.9909	1309.2134	-168.4194	714.7195	1326.0497	-102.7774	724.9181	1284.4427	-108.7106	773.9792	1336.9578	-53.3553	781.2794	1294.0017	-54.1694	389.1677	906.9299	-88.5093	194.2428	929.11	-154.5683	368.7552	894.6913	-344.162	186.4204	923.0416	-258.0168	310.3308	971.889	-54.6689	278.6951	940.6372	-376.7017	149.0481	1296.8788	-387.5668	172.6723	1200.2721	-403.2495	247.4461	1339.9205	-475.5386
179	0.89	181.1104	1368.0973	-254.2692	317.2024	1322.3716	-227.5014	181.9135	1324.8143	-84.6568	215.4875	1332.8472	-48.3754	233.3437	1367.1888	-72.432	238.1804	1342.1813	-408.1677	283.5975	1364.5662	-418.156	272.8947	1389.2304	-371.6603	397.002	1134.3293	-214.2102	162.6054	1189.4041	-251.4271	300.3201	1150.554	-27.0102	231.3439	1007.3436	-49.3874	252.0355	1018.098	13.3794	309.578	863.6154	31.0728	357.8062	800.8989	7.6356	312.5401	794.7795	31.2718	381.4026	718.6455	17.8944	334.5602	714.6455	37.7733	422.9112	1330.0781	-297.4794	532.8268	1238.8191	-264.015	559.5261	1281.6798	-278.0964	677.0319	1309.1453	-168.3955	714.6844	1326.0759	-102.72	724.9285	1284.405	-108.6613	774.0041	1336.9078	-53.2832	781.2855	1294.0137	-54.1456	389.1688	906.9171	-88.4967	194.2765	929.1319	-154.5495	368.754	894.6943	-344.1066	186.4251	923.0502	-257.9821	310.394	971.9143	-54.6153	278.7735	940.6234	-376.7243	149.0881	1296.8821	-387.5876	172.7145	1200.2684	-403.2364	247.4634	1339.9089	-475.5562
180	0.895	181.1097	1368.1036	-254.2836	317.2108	1322.3927	-227.5102	181.9461	1324.8268	-84.6761	215.5018	1332.8367	-48.3518	233.3759	1367.2137	-72.4524	238.23	1342.174	-408.2241	283.6261	1364.5629	-418.1866	272.9222	1389.2402	-371.6652	396.9998	1134.3285	-214.201	162.6273	1189.3975	-251.4167	300.3543	1150.5952	-26.979	231.3888	1007.3787	-49.3787	252.1015	1018.1436	13.3725	309.6293	863.6682	31.0743	357.8826	800.9076	7.6157	312.5846	794.7812	31.3231	381.429	718.6577	17.9495	334.6218	714.7133	37.7755	422.9203	1330.1143	-297.4924	532.87	1238.7881	-264.0043	559.5347	1281.6542	-278.0696	677.0898	1309.1134	-168.3577	714.6684	1326.0702	-102.6826	724.9283	1284.3934	-108.6276	773.9927	1336.8656	-53.2596	781.2559	1294.0337	-54.1044	389.1843	906.9408	-88.4903	194.2939	929.1442	-154.5226	368.7669	894.7228	-344.1013	186.4321	923.0455	-257.956	310.4063	971.8864	-54.6319	278.7042	940.6393	-376.6324	149.1213	1296.8615	-387.6012	172.7373	1200.2526	-403.2629	247.485	1339.8837	-475.5527
181	0.9	181.1422	1368.0936	-254.3043	317.2626	1322.4071	-227.563	181.9892	1324.8678	-84.6791	215.5553	1332.8369	-48.3845	233.437	1367.2169	-72.477	238.2328	1342.1565	-408.2372	283.6266	1364.5734	-418.1541	272.9587	1389.2738	-371.7342	397.03	1134.3657	-214.1945	162.6497	1189.4144	-251.4364	300.4262	1150.6617	-27.0178	231.433	1007.3978	-49.3616	252.1671	1018.187	13.3824	309.7093	863.6806	31.1176	357.9698	800.9306	7.6598	312.618	794.8281	31.3403	381.5484	718.6398	17.9991	334.5707	714.7923	37.8148	422.9778	1330.0725	-297.4809	532.9122	1238.7575	-264.0032	559.5878	1281.5942	-278.062	677.13	1309.0933	-168.2481	714.7462	1325.9967	-102.6598	724.9274	1284.4377	-108.5971	774.0184	1336.8373	-53.2246	781.2705	1294.0436	-54.0923	389.186	906.9181	-88.5016	194.2899	929.1406	-154.4874	368.7758	894.7283	-344.0604	186.4339	923.052	-257.9231	310.4319	971.8668	-54.5971	278.7536	940.6193	-376.5793	149.1595	1296.8435	-387.6247	172.771	1200.2444	-403.2607	247.428	1339.7963	-475.6451
182	0.905	181.1578	1368.1095	-254.3245	317.2701	1322.4153	-227.5681	182.0145	1324.8905	-84.7082	215.6186	1332.8853	-48.4244	233.4554	1367.2317	-72.5127	238.3088	1342.1528	-408.248	283.6384	1364.5945	-418.1991	273.0052	1389.21	-371.7358	397.0688	1134.3677	-214.2359	162.662	1189.3993	-251.4437	300.4954	1150.7339	-27.0277	231.4819	1007.4317	-49.3314	252.2488	1018.2744	13.4441	309.7638	863.7254	31.1427	358.0283	800.9659	7.6464	312.3032	794.7169	31.3219	381.5944	718.7201	18.0883	334.7891	714.6946	37.8664	423.0012	1330.0919	-297.499	533.1905	1238.89	-264.1212	559.5862	1281.6137	-278.0315	677.1282	1309.1169	-168.2514	714.7457	1325.9877	-102.6397	724.9713	1284.3505	-108.5555	774.0064	1336.8561	-53.1704	780.1645	1293.9006	-53.4364	389.2121	906.9352	-88.4621	194.4042	929.2069	-154.4412	368.7924	894.7448	-344.0325	186.6691	923.0013	-257.9229	310.4611	971.8441	-54.6005	278.7929	940.579	-376.5886	149.1528	1296.8283	-387.6447	172.8096	1200.2252	-403.305	247.5632	1339.834	-475.6078
183	0.91	181.1693	1368.1211	-254.3441	317.3047	1322.4578	-227.5806	182.0604	1324.9165	-84.7262	215.6876	1332.93	-48.4535	233.4853	1367.2433	-72.4645	238.33	1342.1596	-408.2826	283.6723	1364.5703	-418.2251	273.0249	1389.224	-371.7718	397.0825	1134.3617	-214.206	162.6988	1189.4164	-251.4599	300.5829	1150.7361	-27.0319	231.53	1007.4704	-49.3124	252.2882	1018.296	13.4256	309.7808	863.8008	31.1853	358.1063	800.9962	7.6561	312.712	794.8696	31.3891	381.6456	718.75	18.1038	334.7985	714.7483	37.8901	423.0736	1330.0236	-297.4996	532.9459	1238.6943	-263.9462	559.615	1281.6013	-278.0089	677.1155	1309.1007	-168.1938	714.7432	1325.9855	-102.5854	724.953	1284.3369	-108.4955	773.9743	1336.8213	-53.1012	781.2977	1293.9421	-53.9756	389.2211	906.9026	-88.4469	194.3366	929.1167	-154.4465	368.7971	894.7482	-344.0024	186.458	923.0557	-257.8862	310.4052	971.8061	-54.9657	278.7276	940.6447	-376.5869	149.2001	1296.837	-387.6747	172.8045	1200.2267	-403.2978	247.5648	1339.8486	-475.6166
184	0.915	181.1999	1368.1228	-254.3696	317.341	1322.4631	-227.6062	182.1114	1324.968	-84.7482	215.694	1333.0115	-48.4638	233.5584	1367.248	-72.5354	238.3704	1342.1202	-408.3163	283.7847	1364.4982	-418.2365	273.0071	1389.246	-371.7584	397.1627	1134.37	-214.2311	162.6926	1189.4055	-251.4433	300.6517	1150.7385	-27.0581	231.5649	1007.5029	-49.3047	252.3201	1018.3109	13.4525	309.8968	863.802	31.1837	358.1537	801.0401	7.7362	312.7732	794.8845	31.4306	381.7119	718.7978	18.1668	334.8558	714.7527	37.9585	423.0842	1330.0001	-297.4858	532.9763	1238.7069	-263.9597	559.6246	1281.5974	-277.9986	677.1063	1309.1406	-168.1488	714.7664	1325.9535	-102.5676	724.9675	1284.3252	-108.4684	773.9531	1336.8543	-53.0572	781.2927	1293.9291	-53.9178	389.2194	906.9294	-88.4317	194.3012	929.1308	-154.4283	368.806	894.7513	-343.9529	186.4566	923.0463	-257.8457	310.4229	971.8221	-54.9572	278.7268	940.6606	-376.5115	149.1908	1296.7932	-387.6628	172.8038	1200.1849	-403.2893	247.5772	1339.8087	-475.6179
185	0.92	181.2153	1368.1372	-254.3836	317.339	1322.5034	-227.5946	182.1532	1324.9797	-84.7637	215.7679	1333.0203	-48.5022	233.5983	1367.2797	-72.5182	238.3972	1342.1277	-408.3174	283.8187	1364.477	-418.2828	272.9936	1388.9575	-371.8396	397.1814	1134.3796	-214.2341	162.7142	1189.4054	-251.4635	300.6891	1150.7639	-27.0636	231.5896	1007.5201	-49.2857	252.4329	1018.3827	13.4727	309.8508	863.7805	31.193	358.164	801.1197	7.7585	312.8226	794.8894	31.4637	381.7938	718.809	18.1756	334.9212	714.796	38.05	423.1119	1330.0029	-297.4933	532.9698	1238.7264	-263.9186	559.6595	1281.6399	-277.9863	677.1402	1309.0737	-168.1174	714.7242	1325.9841	-102.5118	724.9764	1284.3057	-108.4317	773.9456	1336.8539	-53.0029	781.2627	1293.9335	-53.8811	389.1736	906.9133	-88.3966	194.3412	929.1287	-154.3859	368.8249	894.7715	-343.9359	186.6712	922.9921	-257.8489	310.3825	971.8422	-54.9309	278.7908	940.5728	-376.4912	149.2494	1296.8193	-387.7052	172.8362	1200.1783	-403.317	247.592	1339.801	-475.6205
